<?xml version="1.0" encoding="utf-8"?>
<!-- Generator: Adobe Illustrator 16.0.0, SVG Export Plug-In . SVG Version: 6.00 Build 0)  -->
<!DOCTYPE svg PUBLIC "-//W3C//DTD SVG 1.1//EN" "http://www.w3.org/Graphics/SVG/1.1/DTD/svg11.dtd">
<svg version="1.1" id="Layer_1" xmlns="http://www.w3.org/2000/svg" xmlns:xlink="http://www.w3.org/1999/xlink" x="0px" y="0px"
	 width="509.069px" height="71px" viewBox="0 0 509.069 71" enable-background="new 0 0 509.069 71" xml:space="preserve">
<g>
	<g>
		<polygon fill="#414042" points="78.069,35.5 71,28.918 71,0 0,0 0,71 71,71 71,42.082 		"/>
		<polygon opacity="0.9" fill="#58595B" points="77.801,35.75 78.069,35.5 71,28.918 71,0 0,0 0,35.75 		"/>
		<g>
			<g>
				<g>
					<text transform="matrix(1 0 0 1 18.6836 45.917)" fill="#FFFFFF" font-family="'Helvetica-Bold'" font-size="30.114">01</text>
				</g>
			</g>
		</g>
	</g>
	<g>
		<polygon fill="#414042" points="185.819,35.5 178.75,28.918 178.75,0 107.75,0 107.75,71 178.75,71 178.75,42.082 		"/>
		<polygon opacity="0.9" fill="#58595B" points="185.551,35.75 185.819,35.5 178.75,28.918 178.75,0 107.75,0 107.75,35.75 		"/>
		<g>
			<g>
				<g>
					<text transform="matrix(1 0 0 1 126.4336 45.917)" fill="#FFFFFF" font-family="'Helvetica-Bold'" font-size="30.114">02</text>
				</g>
			</g>
		</g>
	</g>
	<g>
		<polygon fill="#414042" points="293.569,35.5 286.5,28.918 286.5,0 215.5,0 215.5,71 286.5,71 286.5,42.082 		"/>
		<polygon opacity="0.9" fill="#58595B" points="293.301,35.75 293.569,35.5 286.5,28.918 286.5,0 215.5,0 215.5,35.75 		"/>
		<g>
			<g>
				<g>
					<text transform="matrix(1 0 0 1 234.1836 45.917)" fill="#FFFFFF" font-family="'Helvetica-Bold'" font-size="30.114">03</text>
				</g>
			</g>
		</g>
	</g>
	<g>
		<polygon fill="#414042" points="401.319,35.5 394.25,28.918 394.25,0 323.25,0 323.25,71 394.25,71 394.25,42.082 		"/>
		<polygon opacity="0.9" fill="#58595B" points="401.051,35.75 401.319,35.5 394.25,28.918 394.25,0 323.25,0 323.25,35.75 		"/>
		<g>
			<g>
				<g>
					<text transform="matrix(1 0 0 1 341.9336 45.917)" fill="#FFFFFF" font-family="'Helvetica-Bold'" font-size="30.114">04</text>
				</g>
			</g>
		</g>
	</g>
	<g>
		<polygon fill="#6D6E71" points="509.069,35.5 502,28.918 502,0 431,0 431,71 502,71 502,42.082 		"/>
		<polygon opacity="0.9" fill="#939598" points="508.801,35.75 509.069,35.5 502,28.918 502,0 431,0 431,35.75 		"/>
		<g>
			<g>
				<g>
					<text transform="matrix(1 0 0 1 449.6836 45.917)" fill="#FFFFFF" font-family="'Helvetica-Bold'" font-size="30.114">05</text>
				</g>
			</g>
		</g>
	</g>
</g>
</svg>
