<?xml version="1.0" encoding="utf-8"?>
<!-- Generator: Adobe Illustrator 16.0.0, SVG Export Plug-In . SVG Version: 6.00 Build 0)  -->
<!DOCTYPE svg PUBLIC "-//W3C//DTD SVG 1.1//EN" "http://www.w3.org/Graphics/SVG/1.1/DTD/svg11.dtd">
<svg version="1.1" id="Layer_1" xmlns="http://www.w3.org/2000/svg" xmlns:xlink="http://www.w3.org/1999/xlink" x="0px" y="0px"
	 width="320px" height="30px" viewBox="0 0 320 30" enable-background="new 0 0 320 30" xml:space="preserve">
<g>
	<g>
		<path fill="#56C5D1" d="M311.454,13.07v-0.051c2.172-0.26,3.465-2.201,3.465-4.296c0-3.521-2.302-4.325-6.001-4.325h-7.766
			l-3.884,18.483h9.86c3.7,0,7.068-2.047,7.068-6.059C314.197,15.037,313.213,13.537,311.454,13.07z M306.951,19.723h-5.099v-0.004
			h-0.202l1.084-5.075h3.987c0.021,0,0.04,0.006,0.057,0.006h0.142c1.48,0,3.214,0.156,3.214,2.094
			C310.134,18.711,308.785,19.723,306.951,19.723z M308.113,11.882h-4.604V11.88h-0.206l0.907-4.322h4.294
			c0.011,0,0.018,0.004,0.022,0.004h0.18c1.324,0,2.149,0.491,2.149,1.884C310.856,11.051,309.592,11.882,308.113,11.882z"/>
		<g>
			<path fill="#182F58" d="M182.614,15.74c-0.911,0-1.736,0.418-2.287,1.129l-0.026-0.029l0.794-3.774h-1.229l-2.181,10.323h1.098
				l0.273-1.387h0.031c0.156,0.736,1.139,1.561,2.514,1.561c2.529,0,3.948-2.27,3.948-4.598
				C185.549,17.057,184.606,15.74,182.614,15.74z M181.601,22.477c-1.213,0-2.038-0.693-2.038-1.863c0-1.59,0.896-3.789,3.052-3.789
				c1.141,0,1.705,0.955,1.705,2.141C184.319,20.426,183.379,22.477,181.601,22.477z"/>
			<path fill="#182F58" d="M187.878,21.939h-0.029l-0.866-5.941h-1.314l1.314,7.475l-0.75,1.242
				c-0.288,0.477-0.608,0.812-1.159,0.812c-0.216,0-0.521-0.09-0.71-0.205l-0.215,0.998c0.233,0.115,0.566,0.188,0.854,0.188
				c1.256,0,1.809-0.793,2.414-1.766l4.945-8.744h-1.346L187.878,21.939z"/>
		</g>
		<polygon fill="#182F58" points="220.873,13.321 220.407,14.272 220.836,13.505 		"/>
		<g>
			<path fill="#182F58" d="M209.891,16.529c0-3.693-2.28-4.934-5.516-5.774c-1.414-0.346-4.906-0.863-4.906-2.912
				c0-1.912,1.876-2.573,3.609-2.573c2.107,0,5.764,0.274,6.319,2.634h3.917c-0.554-4.973-5.76-6.156-9.978-6.156
				c-3.983,0-8.169,1.819-8.169,6.41c0,3.551,2.599,4.734,5.194,5.543c2.57,0.781,5.228,1.186,5.228,3.204
				c0,2.053-2.106,2.92-3.929,2.92c-2.595,0-4.59-0.896-4.443-3.814h-4.301c0,4.969,2.887,7.332,8.574,7.332
				C205.415,23.342,209.891,21.467,209.891,16.529z"/>
			<path fill="#182F58" d="M230.229,8.404c-2.018,0-3.679,0.793-4.933,2.347h-0.051l0.434-1.964h-1.223l-3.814,7.743l-1.615,6.352
				h3.87l1.582-7.497c0.406-1.962,1.607-3.926,3.952-3.926c0.896,0,1.854,0.6,1.854,1.444c0,0.385-0.136,1.306-0.247,1.719
				l-1.714,8.259h3.868l1.744-8.259c0.109-0.489,0.411-1.852,0.411-2.425C234.347,9.742,232.902,8.404,230.229,8.404z"/>
			<path fill="#182F58" d="M220.873,14.039l2.57-5.252h-1.475h-2.191l-4.881,10.084h-0.053l-1.228-10.084h-3.979l2.507,13.956
				c-0.518,0.738-0.737,1.91-2.561,1.91c-0.52,0-1.066-0.164-1.584-0.164l-0.654,3.219c0.685,0.023,1.39,0.135,2.074,0.135
				c2.914,0,4.141-0.545,5.477-2.973l5.511-9.883L220.873,14.039z"/>
			<g>
				<path fill="#182F58" d="M248.226,16.852c0.136-0.684,0.22-1.446,0.22-2.209c0-4.089-2.646-6.162-6.572-6.162
					c-4.797,0-7.766,4.199-7.766,8.7c0,4.006,2.505,6.158,6.27,6.158c4.06,0,6.073-1.691,7.302-4.852h-3.871
					c-0.571,0.898-1.336,1.936-2.888,1.936c-2.099,0-3.109-1.117-3.109-2.752c0-0.221,0-0.467,0.028-0.818H248.226z M242.091,11.399
					c2.265,0,2.616,1.554,2.616,2.999h-6.459C238.821,12.815,239.91,11.399,242.091,11.399z"/>
			</g>
			<path fill="#182F58" d="M258.392,8.48c-0.023,0-0.051,0.006-0.077,0.006c0.033-0.002,0.061-0.002,0.093-0.002
				C258.403,8.484,258.396,8.48,258.392,8.48z"/>
			<path fill="#182F58" d="M258.801,12.328l0.042-0.191l-0.201-0.17c-0.062,0.093-0.121,0.191-0.181,0.292
				C258.574,12.281,258.688,12.304,258.801,12.328z"/>
			<path fill="#182F58" d="M279.812,13.293l-3.204,5.609h-0.056l-1.227-10.084h-1.659l-0.984,5.384l1.172,8.572
				c-0.517,0.736-0.734,1.91-2.561,1.91c-0.519,0-1.065-0.164-1.583-0.164l-0.655,3.217c0.685,0.027,1.392,0.133,2.075,0.133
				c2.914,0,4.07,0.521,5.406-1.906l3.773-6.549C279.642,17.016,279.337,15.488,279.812,13.293z"/>
			<path fill="#182F58" d="M257.586,12.097c0.11-0.199,0.227-0.392,0.347-0.578c0.33-0.497,0.693-0.936,1.068-1.316
				c0.583-0.592,0.996-1.049,1.538-1.385c-1.467-0.332-1.713-0.344-2.132-0.334c-0.032,0-0.06,0-0.093,0.002
				c-0.145,0.004-0.287,0.016-0.431,0.029c-0.156,0.017-0.28,0.033-0.383,0.051c-1.711,0.26-3.217,1.236-3.961,2.889l-0.054-0.056
				l0.573-2.535h-3.68l-2.945,14.095h3.871l1.308-6.246c0.516-2.397,1.58-4.633,4.554-4.633
				C257.385,12.08,257.368,12.068,257.586,12.097z"/>
			<path fill="#182F58" d="M271.274,16.564h-0.004l0.74-4.057l0.671-3.689V8.815h-3.487l-0.436,2.155h-0.056
				c-0.787-1.854-2.372-2.537-4.308-2.537c-0.545,0-1.064,0.068-1.556,0.188c-0.153,0.055-0.723,0.169-1.271,0.475
				c-0.802,0.443-1.685,1.1-2.561,2.246c-0.117,0.153-0.255,0.455-0.366,0.625l0.201,0.17l-0.042,0.191
				c-0.113-0.023-0.227-0.047-0.34-0.069c-0.069,0.115-0.136,0.235-0.2,0.358c-0.636,1.332-0.979,2.844-0.979,4.327
				c0,3.459,2.071,5.75,5.425,5.75c1.583,0,2.863-0.654,3.868-1.992l0.058,0.055c-0.761,2.754-1.474,4.908-3.926,4.908
				c-1.251,0-2.591-0.602-2.535-2.018h-3.87c0,3.381,3.161,4.605,6.021,4.605c4.663,0,6.818-1.801,7.771-6.078L271.274,16.564z
				 M263.771,19.775c-1.8,0-2.618-1.445-2.618-3.107c0-2.261,1.362-5.315,3.954-5.315c1.879,0,2.779,1.279,2.779,3.054
				C267.886,16.805,266.552,19.775,263.771,19.775z"/>
			<path fill="#182F58" d="M261.568,9.095c0.045,0.021,0.093,0.037,0.14,0.057c0.552-0.306,0.979-0.477,1.132-0.531
				C262.389,8.735,261.967,8.896,261.568,9.095z"/>
			<path fill="#182F58" d="M258.445,12.254c-0.062,0.118-0.124,0.239-0.185,0.362c0.064-0.123,0.131-0.243,0.2-0.358
				C258.454,12.256,258.452,12.256,258.445,12.254z"/>
			<path fill="#182F58" d="M258.642,11.966l-0.024-0.021c-0.061,0.102-0.118,0.204-0.172,0.309c0.007,0.002,0.009,0.002,0.016,0.004
				C258.521,12.158,258.579,12.059,258.642,11.966z"/>
			<path fill="#182F58" d="M258.981,11.481l0.026-0.14c-0.136,0.195-0.271,0.397-0.391,0.604l0.024,0.021
				C258.753,11.796,258.863,11.634,258.981,11.481z"/>
		</g>
		<path fill="#182F58" d="M284.562,13.298c0-0.005,0-0.008,0-0.008c0.053-0.402,0.117-0.591,0.251-1.083
			c0.007-0.024,0.018-0.05,0.022-0.073c0.049-0.184,0.106-0.367,0.171-0.557c0.72-2.082,2.153-3.854,4.379-4.307
			c0.015-0.006,0.026-0.012,0.042-0.018c0,0,0.049-0.008,0.118-0.015c0.307-0.056,0.628-0.092,0.966-0.092
			c1.241,0,2.21,0.288,2.858,0.909c0.082,0.071,0.156,0.149,0.231,0.231c0.012,0.015,0.024,0.03,0.035,0.046
			c0.381,0.459,0.63,1.078,0.627,1.945h4.06c0-0.462-0.056-0.885-0.13-1.297c-0.184-0.928-0.64-2.183-1.709-3.236
			c-0.091-0.086-0.173-0.18-0.269-0.259c-0.118-0.1-0.243-0.195-0.374-0.29c-0.669-0.469-1.436-0.834-2.294-1.072
			c-0.015-0.003-0.026-0.007-0.039-0.01c-0.395-0.109-0.813-0.185-1.236-0.246c-0.124-0.017-0.242-0.035-0.375-0.049
			c-0.409-0.047-0.83-0.074-1.259-0.077c-1.229,0.005-3.325,0.225-5.321,1.438c-0.119,0.076-0.237,0.162-0.355,0.244
			c-0.173,0.119-0.347,0.229-0.52,0.364c-0.247,0.201-0.485,0.42-0.716,0.647c-0.052,0.051-0.107,0.094-0.163,0.148
			c-0.106,0.111-0.201,0.235-0.306,0.35c-1.007,1.155-1.865,2.699-2.381,4.815c-0.069,0.302-0.132,0.617-0.185,0.949
			c0,0.013-0.002,0.026-0.005,0.042c-0.047,0.303-0.08,0.618-0.104,0.942c-0.011,0.112-0.018,0.231-0.021,0.35
			c-0.016,0.279-0.022,0.562-0.018,0.849c0,0.084,0.002,0.171,0.002,0.253c0.026,0.792,0.037,1.242,0.239,2.109
			c0.101,0.434,0.258,0.881,0.414,1.332l3.345-5.094C284.551,13.419,284.553,13.367,284.562,13.298z"/>
		<path fill="#56C5D1" d="M289.667,15.916h4.271c-0.702,2.355-2.048,3.986-5.126,3.986c-2.934,0-4.176-2.203-4.188-4.729
			l-2.912,4.674c1.321,2.24,3.741,3.469,7.047,3.469c1.709,0,3.442-0.67,4.66-2.328h0.05v1.889h2.564l2.122-9.989h-7.844
			L289.667,15.916z"/>
	</g>
	<g>
		<g>
			<g>
				<g>
					<path fill="#003E7E" d="M133.187,20.898c-1.063,1.068-2.351,1.604-3.861,1.604c-1.508,0-2.796-0.535-3.859-1.604
						c-1.065-1.072-1.599-2.363-1.599-3.873c0-1.506,0.534-2.787,1.599-3.846c1.062-1.062,2.351-1.592,3.859-1.592
						c1.51,0,2.797,0.53,3.861,1.592c1.065,1.059,1.597,2.34,1.597,3.846C134.784,18.535,134.252,19.826,133.187,20.898z
						 M126.023,13.711c-0.906,0.918-1.358,2.025-1.358,3.324c0,1.303,0.451,2.42,1.35,3.342c0.912,0.92,2.014,1.381,3.311,1.381
						c1.298,0,2.401-0.461,3.312-1.381c0.901-0.922,1.351-2.039,1.351-3.342c0-1.299-0.454-2.406-1.359-3.324
						c-0.906-0.92-2.005-1.382-3.303-1.382C128.034,12.33,126.934,12.792,126.023,13.711z M131.138,19.645
						c-0.467,0.369-1.021,0.557-1.671,0.557c-0.815,0-1.513-0.297-2.092-0.879c-0.578-0.586-0.869-1.361-0.869-2.332
						c0-0.908,0.263-1.668,0.785-2.275c0.521-0.61,1.204-0.912,2.044-0.912c0.527,0,1.005,0.105,1.431,0.318
						c0.737,0.381,1.136,1.016,1.2,1.9h-0.897c-0.044-0.371-0.199-0.691-0.467-0.964c-0.268-0.27-0.654-0.407-1.165-0.407
						c-0.715,0-1.234,0.321-1.557,0.965c-0.206,0.408-0.31,0.852-0.31,1.328c0,0.68,0.166,1.248,0.5,1.715
						c0.335,0.461,0.816,0.691,1.449,0.691c0.406,0,0.744-0.105,1.014-0.32c0.273-0.219,0.464-0.529,0.574-0.941h0.898
						C131.891,18.756,131.604,19.275,131.138,19.645z"/>
					<path fill="#003E7E" d="M140.216,20.109c0.331-0.678,0.973-1.295,1.928-1.852l1.425-0.822c0.64-0.373,1.09-0.689,1.346-0.955
						c0.408-0.41,0.608-0.881,0.608-1.414c0-0.618-0.185-1.111-0.556-1.475c-0.371-0.366-0.865-0.548-1.484-0.548
						c-0.917,0-1.551,0.348-1.903,1.046c-0.187,0.368-0.291,0.885-0.311,1.548h-1.359c0.016-0.928,0.184-1.683,0.513-2.268
						c0.579-1.031,1.601-1.543,3.068-1.543c1.215,0,2.108,0.326,2.669,0.985c0.564,0.659,0.845,1.393,0.845,2.202
						c0,0.847-0.301,1.58-0.9,2.183c-0.346,0.352-0.968,0.777-1.867,1.275l-1.016,0.568c-0.484,0.266-0.865,0.521-1.142,0.764
						c-0.496,0.432-0.809,0.908-0.938,1.436h5.81v1.262h-7.303C139.699,21.584,139.889,20.787,140.216,20.109z"/>
					<path fill="#003E7E" d="M154.738,13.565c0.476,0.877,0.713,2.076,0.713,3.603c0,1.445-0.218,2.643-0.646,3.588
						c-0.625,1.357-1.646,2.037-3.062,2.037c-1.277,0-2.229-0.555-2.852-1.664c-0.52-0.926-0.78-2.174-0.78-3.73
						c0-1.209,0.157-2.249,0.468-3.113c0.583-1.614,1.643-2.424,3.172-2.424C153.126,11.862,154.122,12.43,154.738,13.565z
						 M153.392,20.648c0.412-0.611,0.618-1.758,0.618-3.428c0-1.209-0.148-2.203-0.446-2.982c-0.298-0.785-0.876-1.171-1.734-1.171
						c-0.79,0-1.366,0.369-1.731,1.109c-0.365,0.741-0.547,1.833-0.547,3.272c0,1.086,0.117,1.955,0.349,2.615
						c0.357,1.006,0.968,1.51,1.83,1.51C152.426,21.574,152.98,21.268,153.392,20.648z"/>
					<path fill="#003E7E" d="M157.554,14.967v-1.023c0.966-0.096,1.637-0.251,2.019-0.473c0.381-0.22,0.666-0.744,0.854-1.565h1.056
						v10.596h-1.424v-7.535H157.554z"/>
					<text transform="matrix(1 0 0 1 163.4697 22.6426)" fill="#003E7E" font-family="'MyriadPro-Regular'" font-size="16.3091">6</text>
				</g>
				<g>
					<path fill="#003E7E" d="M5.081,10.339h5.739c1.564,0,2.678,0.467,3.338,1.395c0.391,0.549,0.583,1.18,0.583,1.899
						c0,0.833-0.238,1.521-0.713,2.059c-0.248,0.283-0.602,0.543-1.065,0.775c0.679,0.26,1.188,0.551,1.525,0.879
						c0.596,0.576,0.896,1.377,0.896,2.393c0,0.857-0.271,1.631-0.811,2.322c-0.806,1.037-2.088,1.557-3.845,1.557H5.081V10.339z
						 M10.149,15.953c0.769,0,1.365-0.107,1.79-0.314c0.668-0.335,1.002-0.931,1.002-1.791c0-0.867-0.354-1.453-1.067-1.754
						c-0.4-0.168-0.998-0.253-1.789-0.253H6.843v4.113H10.149z M10.755,22.08c1.115,0,1.908-0.32,2.382-0.959
						c0.299-0.404,0.449-0.891,0.449-1.463c0-0.965-0.436-1.619-1.307-1.971c-0.461-0.189-1.072-0.279-1.834-0.279H6.843v4.672
						H10.755z"/>
					<path fill="#003E7E" d="M22.441,17.758c0.374-0.045,0.622-0.203,0.751-0.469c0.07-0.145,0.106-0.352,0.106-0.627
						c0-0.557-0.196-0.959-0.589-1.208c-0.395-0.251-0.958-0.381-1.692-0.381c-0.848,0-1.45,0.233-1.804,0.691
						c-0.197,0.258-0.327,0.633-0.388,1.135h-1.519c0.031-1.195,0.418-2.025,1.16-2.494c0.744-0.468,1.605-0.703,2.586-0.703
						c1.136,0,2.062,0.216,2.771,0.652c0.703,0.434,1.056,1.106,1.056,2.023v5.576c0,0.166,0.034,0.307,0.103,0.406
						c0.07,0.105,0.217,0.154,0.439,0.154c0.073,0,0.155-0.006,0.243-0.014c0.092-0.008,0.188-0.021,0.29-0.041v1.205
						c-0.251,0.072-0.444,0.117-0.579,0.137c-0.13,0.016-0.312,0.025-0.542,0.025c-0.559,0-0.967-0.201-1.22-0.596
						c-0.133-0.213-0.225-0.512-0.281-0.898c-0.329,0.434-0.808,0.809-1.426,1.133c-0.621,0.318-1.304,0.477-2.051,0.477
						c-0.898,0-1.629-0.271-2.201-0.816c-0.57-0.545-0.855-1.225-0.855-2.047c0-0.895,0.281-1.59,0.839-2.082
						c0.564-0.496,1.296-0.799,2.208-0.912L22.441,17.758z M19.017,22.154c0.343,0.27,0.749,0.406,1.218,0.406
						c0.574,0,1.128-0.135,1.663-0.396c0.903-0.441,1.355-1.16,1.355-2.16v-1.309c-0.2,0.129-0.453,0.232-0.765,0.32
						c-0.312,0.084-0.62,0.145-0.919,0.18l-0.983,0.127c-0.591,0.08-1.035,0.199-1.331,0.371c-0.502,0.279-0.754,0.732-0.754,1.35
						C18.501,21.514,18.671,21.883,19.017,22.154z"/>
					<path fill="#003E7E" d="M27.547,13.939h1.547v1.37c0.457-0.566,0.943-0.971,1.453-1.219c0.513-0.246,1.083-0.37,1.709-0.37
						c1.372,0,2.3,0.479,2.782,1.437c0.266,0.525,0.397,1.277,0.397,2.251v6.209h-1.653v-6.102c0-0.592-0.086-1.068-0.261-1.428
						c-0.29-0.601-0.814-0.904-1.574-0.904c-0.385,0-0.701,0.04-0.949,0.119c-0.445,0.134-0.837,0.396-1.175,0.794
						c-0.271,0.32-0.448,0.648-0.528,0.99c-0.081,0.338-0.122,0.826-0.122,1.459v5.07h-1.627V13.939z"/>
					<path fill="#003E7E" d="M44.234,14.452c0.684,0.533,1.094,1.445,1.235,2.74h-1.582c-0.097-0.596-0.316-1.092-0.66-1.488
						c-0.343-0.394-0.893-0.591-1.654-0.591c-1.036,0-1.778,0.507-2.224,1.517c-0.288,0.656-0.434,1.463-0.434,2.424
						c0,0.971,0.207,1.787,0.615,2.447c0.408,0.666,1.053,0.996,1.934,0.996c0.674,0,1.21-0.205,1.604-0.617
						c0.395-0.412,0.666-0.975,0.818-1.688h1.582c-0.18,1.283-0.633,2.219-1.356,2.814c-0.722,0.592-1.648,0.889-2.772,0.889
						c-1.266,0-2.276-0.461-3.029-1.387c-0.754-0.924-1.131-2.08-1.131-3.463c0-1.699,0.413-3.023,1.239-3.972
						c0.824-0.944,1.876-1.415,3.153-1.415C42.662,13.658,43.55,13.923,44.234,14.452z"/>
					<path fill="#003E7E" d="M52.283,17.758c0.374-0.045,0.622-0.203,0.748-0.469c0.074-0.145,0.111-0.352,0.111-0.627
						c0-0.557-0.196-0.959-0.592-1.208c-0.395-0.251-0.957-0.381-1.691-0.381c-0.848,0-1.449,0.233-1.805,0.691
						c-0.198,0.258-0.328,0.633-0.386,1.135h-1.519c0.03-1.195,0.416-2.025,1.16-2.494c0.743-0.468,1.604-0.703,2.586-0.703
						c1.137,0,2.062,0.216,2.772,0.652c0.704,0.434,1.055,1.106,1.055,2.023v5.576c0,0.166,0.035,0.307,0.103,0.406
						c0.069,0.105,0.217,0.154,0.439,0.154c0.074,0,0.153-0.006,0.243-0.014c0.091-0.008,0.188-0.021,0.289-0.041v1.205
						c-0.252,0.072-0.445,0.117-0.579,0.137c-0.13,0.016-0.313,0.025-0.542,0.025c-0.559,0-0.965-0.201-1.218-0.596
						c-0.134-0.213-0.227-0.512-0.282-0.898c-0.332,0.434-0.807,0.809-1.429,1.133c-0.62,0.318-1.305,0.477-2.049,0.477
						c-0.899,0-1.632-0.271-2.201-0.816c-0.57-0.545-0.855-1.225-0.855-2.047c0-0.895,0.281-1.59,0.839-2.082
						c0.563-0.496,1.297-0.799,2.207-0.912L52.283,17.758z M48.858,22.154c0.343,0.27,0.749,0.406,1.219,0.406
						c0.573,0,1.127-0.135,1.662-0.396c0.904-0.441,1.357-1.16,1.357-2.16v-1.309c-0.199,0.129-0.454,0.232-0.766,0.32
						c-0.315,0.084-0.62,0.145-0.922,0.18l-0.982,0.127c-0.59,0.08-1.032,0.199-1.331,0.371c-0.502,0.279-0.755,0.732-0.755,1.35
						C48.341,21.514,48.514,21.883,48.858,22.154z"/>
					<path fill="#003E7E" d="M57.027,19.658v-1.52h3.942v-3.965h1.544v3.965h3.941v1.52h-3.941v3.959h-1.544v-3.959H57.027z"/>
					<path fill="#003E7E" d="M73.511,10.339h2.576l3.818,11.225l3.791-11.225h2.559v13.278h-1.719v-7.836
						c0-0.271,0.007-0.72,0.019-1.349c0.011-0.623,0.016-1.297,0.016-2.012l-3.787,11.197h-1.782L75.173,12.42v0.404
						c0,0.324,0.008,0.821,0.027,1.487c0.017,0.668,0.027,1.156,0.027,1.47v7.836h-1.716V10.339z"/>
					<path fill="#003E7E" d="M95.769,14.905c0.855,0.83,1.284,2.05,1.284,3.664c0,1.561-0.376,2.848-1.133,3.865
						c-0.752,1.018-1.924,1.525-3.508,1.525c-1.325,0-2.372-0.449-3.151-1.35c-0.778-0.9-1.165-2.109-1.165-3.623
						c0-1.629,0.411-2.922,1.231-3.883c0.818-0.964,1.919-1.445,3.302-1.445C93.864,13.658,94.912,14.071,95.769,14.905z
						 M94.759,21.334c0.397-0.811,0.594-1.721,0.594-2.721c0-0.9-0.142-1.635-0.428-2.199c-0.453-0.895-1.233-1.341-2.342-1.341
						c-0.983,0-1.7,0.381-2.145,1.14c-0.446,0.76-0.669,1.676-0.669,2.742c0,1.031,0.223,1.885,0.669,2.576
						c0.445,0.686,1.157,1.029,2.126,1.029C93.632,22.561,94.363,22.148,94.759,21.334z M94.548,10.046l-2.414,2.605h-1.245
						l1.653-2.605H94.548z"/>
					<path fill="#003E7E" d="M99.85,13.939l2.585,7.881l2.691-7.881h1.78l-3.643,9.678h-1.732l-3.57-9.678H99.85z"/>
					<path fill="#003E7E" d="M108.302,10.339h1.655v1.847h-1.655V10.339z M108.302,13.984h1.655v9.633h-1.655V13.984z"/>
					<path fill="#003E7E" d="M112.461,10.339h1.624v13.278h-1.624V10.339z"/>
				</g>
			</g>
		</g>
	</g>
</g>
</svg>
