<?xml version="1.0" encoding="utf-8"?>
<!-- Generator: Adobe Illustrator 16.0.0, SVG Export Plug-In . SVG Version: 6.00 Build 0)  -->
<!DOCTYPE svg PUBLIC "-//W3C//DTD SVG 1.1//EN" "http://www.w3.org/Graphics/SVG/1.1/DTD/svg11.dtd">
<svg version="1.1" id="Layer_1" xmlns="http://www.w3.org/2000/svg" xmlns:xlink="http://www.w3.org/1999/xlink" x="0px" y="0px"
	 width="438.188px" height="108.554px" viewBox="0 0 438.188 108.554" enable-background="new 0 0 438.188 108.554"
	 xml:space="preserve">
<g>
	<g>
		<g>
			<g>
				<path fill="#FFFFFF" d="M254.667,98.337c0-1.402-0.028-2.553-0.113-3.676h2.171l0.113,2.189h0.086
					c0.762-1.291,2.03-2.497,4.287-2.497c1.862,0,3.275,1.122,3.868,2.722h0.056c0.422-0.758,0.957-1.348,1.522-1.769
					c0.82-0.616,1.722-0.953,3.019-0.953c1.808,0,4.486,1.178,4.486,5.894v7.998h-2.425v-7.689c0-2.609-0.96-4.183-2.964-4.183
					c-1.409,0-2.511,1.038-2.936,2.245c-0.11,0.338-0.195,0.785-0.195,1.235v8.392h-2.429v-8.139c0-2.16-0.957-3.733-2.85-3.733
					c-1.551,0-2.679,1.235-3.073,2.471c-0.142,0.364-0.199,0.785-0.199,1.206v8.195h-2.425V98.337z"/>
				<path fill="#FFFFFF" d="M291.264,101.341c0,5.024-3.499,7.213-6.799,7.213c-3.697,0-6.547-2.693-6.547-6.988
					c0-4.547,2.99-7.212,6.773-7.212C288.611,94.354,291.264,97.187,291.264,101.341z M280.429,101.482
					c0,2.975,1.722,5.221,4.146,5.221c2.373,0,4.149-2.217,4.149-5.277c0-2.301-1.156-5.221-4.092-5.221
					C281.7,96.205,280.429,98.9,280.429,101.482z M288.303,88.796l-3.443,4.014h-1.776l2.482-4.014H288.303z"/>
				<path fill="#FFFFFF" d="M295.865,94.662l2.68,7.635c0.452,1.234,0.819,2.357,1.101,3.479h0.085
					c0.31-1.121,0.707-2.244,1.156-3.479l2.651-7.635h2.597l-5.361,13.584h-2.37l-5.189-13.584H295.865z"/>
				<path fill="#FFFFFF" d="M311.948,90.845c0.03,0.842-0.594,1.516-1.578,1.516c-0.875,0-1.495-0.674-1.495-1.516
					c0-0.87,0.647-1.543,1.55-1.543C311.354,89.302,311.948,89.975,311.948,90.845z M309.184,108.246V94.662h2.483v13.584H309.184z"
					/>
				<path fill="#FFFFFF" d="M316.492,88.32h2.483v19.926h-2.483V88.32z"/>
			</g>
		</g>
		<g>
			<g>
				<g>
					<path fill="#FFFFFF" d="M331.927,64.618V53.403c0-6.848,3.443-10.272,10.336-10.28h31.95V1.087h11.278
						c6.887,0,10.328,3.434,10.328,10.278l0.041,53.253H331.927L331.927,64.618z"/>
				</g>
				<path fill-rule="evenodd" clip-rule="evenodd" fill="#FFFFFF" d="M395.904,68.906v37.76h-11.271
					c-6.896,0-10.333-3.42-10.344-10.273V68.906h3.728H395.904L395.904,68.906z M438.188,43.15v11.206
					c0,6.862-3.443,10.272-10.333,10.272h-28.23V47.412V43.15H438.188L438.188,43.15z"/>
				<path fill="#FFFFFF" d="M395.904,68.906v37.76h-11.271c-6.896,0-10.333-3.42-10.344-10.273V68.906h3.728H395.904L395.904,68.906
					z"/>
				<g>
					<path fill="#FFFFFF" d="M438.188,43.15v11.206c0,6.862-3.443,10.272-10.333,10.272h-28.23V47.412V43.15H438.188L438.188,43.15z
						"/>
				</g>
			</g>
			<g>
				<path fill="#FFFFFF" d="M38.172,83.52H0V8.967C0,4.177,3.83,0,8.65,0h30.882c15.812,0,26.313,6.264,26.313,21.126
					c0,8.843-3.584,14.124-10.131,17.318c8.277,3.193,13.095,8.597,13.095,19.651C68.809,75.414,56.333,83.52,38.172,83.52z
					 M35.948,14.493H16.924v17.933h19.272c6.796,0,12.353-2.089,12.353-9.09C48.549,16.336,43.731,14.493,35.948,14.493z
					 M36.69,46.55H16.924v21.864h20.014c8.523,0,13.713-2.457,13.713-10.81C50.651,49.007,45.585,46.55,36.69,46.55z"/>
				<path fill="#FFFFFF" d="M93.641,35.497H77.21c1.976-12.038,10.501-17.933,25.571-17.933c18.036,0,27.177,5.895,27.549,17.933
					v22.107c0,17.933-10.871,25.916-28.537,27.144C86.103,85.976,75.235,78.73,75.235,64.36
					c0.37-15.599,11.734-19.774,28.289-21.372c7.041-0.859,10.623-2.947,10.623-6.509c-0.37-3.685-3.83-5.528-10.623-5.528
					C97.716,30.951,94.504,32.426,93.641,35.497z M114.395,56.868v-6.019c-3.83,1.597-8.277,2.948-13.095,3.93
					c-6.547,1.229-9.883,4.3-9.883,9.09c0.37,5.158,3.087,7.615,8.277,7.615C108.835,71.484,114.395,66.079,114.395,56.868z"/>
				<path fill="#FFFFFF" d="M185.549,83.52c-5.436-0.368-8.153-2.948-8.153-8.106V42.005c-0.37-6.755-4.075-10.07-11.365-10.07
					c-7.287,0-10.995,3.315-11.119,10.07V83.52h-16.676V45.322c0-18.547,9.389-27.758,28.043-27.758
					c18.651,0,27.795,9.211,27.671,27.758V83.52H185.549z"/>
				<path fill="#FFFFFF" d="M231.259,84.994c-19.766,0-29.897-11.3-30.392-33.653c0-22.231,10.007-33.408,30.143-33.776
					c15.812,0,25.202,7.001,28.044,21.125h-17.915c-1.976-4.421-5.436-6.754-10.622-6.754c-8.647,0-12.971,6.509-12.971,19.406
					c0,12.896,4.569,19.405,13.713,19.282c3.829,0,7.162-1.596,9.88-4.666c1.608-1.597,3.46-2.334,5.56-2.334h12.355
					C256.088,76.887,246.453,85.362,231.259,84.994z"/>
				<path fill="#FFFFFF" d="M284.625,35.497h-16.431c1.976-12.038,10.501-17.933,25.571-17.933c18.036,0,27.177,5.895,27.55,17.933
					v22.107c0,17.933-10.871,25.916-28.537,27.144c-15.688,1.229-26.562-6.018-26.562-20.388
					c0.373-15.599,11.737-19.774,28.292-21.372c7.041-0.859,10.623-2.947,10.623-6.509c-0.37-3.685-3.83-5.528-10.623-5.528
					C288.7,30.951,285.488,32.426,284.625,35.497z M305.379,56.868v-6.019c-3.83,1.597-8.277,2.948-13.095,3.93
					c-6.548,1.229-9.883,4.3-9.883,9.09c0.369,5.158,3.087,7.615,8.277,7.615C299.819,71.484,305.379,66.079,305.379,56.868z"/>
			</g>
		</g>
	</g>
</g>
</svg>
