<?xml version="1.0" encoding="utf-8"?>
<!-- Generator: Adobe Illustrator 16.0.0, SVG Export Plug-In . SVG Version: 6.00 Build 0)  -->
<!DOCTYPE svg PUBLIC "-//W3C//DTD SVG 1.1//EN" "http://www.w3.org/Graphics/SVG/1.1/DTD/svg11.dtd">
<svg version="1.1" id="Layer_1" xmlns="http://www.w3.org/2000/svg" xmlns:xlink="http://www.w3.org/1999/xlink" x="0px" y="0px"
	 width="19.769px" height="19.288px" viewBox="0 0 19.769 19.288" enable-background="new 0 0 19.769 19.288" xml:space="preserve">
<g>
	<path fill="#414042" d="M9.886,0C4.435,0,0,4.327,0,9.644c0,5.318,4.435,9.645,9.886,9.645c5.447,0,9.883-4.326,9.883-9.645
		C19.769,4.327,15.333,0,9.886,0z M13.076,17.499l-3.035-2.961l-3.118,3.041C3.6,16.394,1.217,13.29,1.217,9.644
		c0-3.624,2.354-6.715,5.646-7.914l3.177,3.098l3.092-3.018c3.175,1.258,5.421,4.291,5.421,7.834
		C18.553,13.208,16.279,16.257,13.076,17.499z"/>
</g>
</svg>
