<?xml version="1.0" encoding="utf-8"?>
<!-- Generator: Adobe Illustrator 16.0.0, SVG Export Plug-In . SVG Version: 6.00 Build 0)  -->
<!DOCTYPE svg PUBLIC "-//W3C//DTD SVG 1.1//EN" "http://www.w3.org/Graphics/SVG/1.1/DTD/svg11.dtd">
<svg version="1.1" id="Layer_1" xmlns="http://www.w3.org/2000/svg" xmlns:xlink="http://www.w3.org/1999/xlink" x="0px" y="0px"
	 width="45.624px" height="74.582px" viewBox="0 0 45.624 74.582" enable-background="new 0 0 45.624 74.582" xml:space="preserve">
<path fill="#414042" d="M22.815,0C10.216,0,0,10.207,0,22.806c0,5.154,1.714,9.964,4.597,13.726c0,0,8.695,14.255,10.076,17.559
	c5.119,12.242,5.767,18.188,5.767,18.188c0,1.25,1.013,2.305,2.261,2.305h0.246c1.248,0,2.26-1.055,2.26-2.305
	c0,0,1.671-7.894,5.778-17.616c1.406-3.319,10.317-18.532,10.317-18.532c2.721-3.767,4.322-8.348,4.322-13.34
	C45.624,10.189,35.417,0,22.815,0z M22.815,31.846c-4.99,0-9.033-4.041-9.033-9.028s4.043-9.032,9.033-9.032
	c4.986,0,9.028,4.045,9.028,9.032S27.802,31.846,22.815,31.846z"/>
</svg>
