<?xml version="1.0" encoding="utf-8"?>
<!-- Generator: Adobe Illustrator 16.0.0, SVG Export Plug-In . SVG Version: 6.00 Build 0)  -->
<!DOCTYPE svg PUBLIC "-//W3C//DTD SVG 1.1//EN" "http://www.w3.org/Graphics/SVG/1.1/DTD/svg11.dtd">
<svg version="1.1" id="Layer_1" xmlns="http://www.w3.org/2000/svg" xmlns:xlink="http://www.w3.org/1999/xlink" x="0px" y="0px"
	 width="66.244px" height="100.305px" viewBox="0 0 66.244 100.305" enable-background="new 0 0 66.244 100.305"
	 xml:space="preserve">
<g>
	<g>
		<path fill="#414042" d="M0,27.691c0-4.196,1.344-8.448,4.037-12.755c2.693-4.304,6.627-7.871,11.795-10.699
			C20.996,1.413,27.029,0,33.918,0c6.402,0,12.059,1.177,16.959,3.542c4.904,2.366,8.691,5.579,11.363,9.642
			c2.674,4.062,4.004,8.478,4.004,13.251c0,3.752-0.756,7.043-2.281,9.867c-1.523,2.831-3.338,5.268-5.43,7.324
			c-2.102,2.054-5.869,5.51-11.299,10.368c-1.5,1.367-2.711,2.576-3.609,3.611c-0.906,1.038-1.582,1.987-2.02,2.852
			c-0.443,0.857-0.789,1.72-1.027,2.583c-0.246,0.861-0.607,2.371-1.094,4.537c-0.838,4.595-3.469,6.891-7.881,6.891
			c-2.301,0-4.236-0.751-5.801-2.255c-1.568-1.501-2.348-3.729-2.348-6.689c0-3.711,0.568-6.923,1.719-9.638
			c1.145-2.718,2.672-5.104,4.574-7.157c1.896-2.055,4.459-4.495,7.684-7.325c2.82-2.469,4.867-4.337,6.125-5.596
			c1.264-1.259,2.318-2.66,3.182-4.209c0.863-1.541,1.293-3.22,1.293-5.033c0-3.532-1.32-6.517-3.941-8.946
			c-2.629-2.426-6.021-3.642-10.172-3.642c-4.857,0-8.434,1.228-10.732,3.68c-2.297,2.447-4.24,6.058-5.83,10.828
			c-1.502,4.992-4.348,7.489-8.545,7.489c-2.473,0-4.564-0.875-6.264-2.619C0.85,31.61,0,29.724,0,27.691z M32.326,100.305
			c-2.691,0-5.045-0.869-7.057-2.613c-2.006-1.745-3.01-4.188-3.01-7.32c0-2.787,0.971-5.127,2.914-7.026
			c1.945-1.897,4.326-2.845,7.152-2.845c2.783,0,5.125,0.947,7.023,2.845c1.902,1.899,2.848,4.239,2.848,7.026
			c0,3.091-0.988,5.521-2.982,7.281C37.232,99.424,34.934,100.305,32.326,100.305z"/>
	</g>
</g>
</svg>
