<?xml version="1.0" encoding="utf-8"?>
<!-- Generator: Adobe Illustrator 16.0.0, SVG Export Plug-In . SVG Version: 6.00 Build 0)  -->
<!DOCTYPE svg PUBLIC "-//W3C//DTD SVG 1.1//EN" "http://www.w3.org/Graphics/SVG/1.1/DTD/svg11.dtd">
<svg version="1.1" id="Layer_1" xmlns="http://www.w3.org/2000/svg" xmlns:xlink="http://www.w3.org/1999/xlink" x="0px" y="0px"
	 width="22.257px" height="28.39px" viewBox="0 0 22.257 28.39" enable-background="new 0 0 22.257 28.39" xml:space="preserve">
<g>
	<path fill="#414042" d="M1.488,9.342h15.687L13.391,13.1c-0.281,0.281-0.438,0.643-0.437,1.039
		c0.001,0.398,0.155,0.766,0.436,1.045c0.28,0.281,0.654,0.434,1.053,0.434c0.397,0,0.771-0.156,1.053-0.438l6.325-6.326
		c0.58-0.582,0.58-1.525,0-2.105l-6.325-6.326c-0.562-0.562-1.542-0.562-2.106,0c-0.579,0.58-0.579,1.541,0.001,2.121l3.785,3.799
		H1.488C0.668,6.342,0,7.021,0,7.842C0,8.663,0.668,9.342,1.488,9.342z"/>
	<path fill="#414042" d="M20.769,19.342H5.081l3.786-3.912c0.579-0.58,0.579-1.59,0-2.168c-0.561-0.564-1.545-0.596-2.105-0.033
		l-6.324,6.309C0.155,19.818,0,20.184,0,20.581c-0.001,0.397,0.154,0.769,0.436,1.05l6.326,6.324
		c0.281,0.281,0.654,0.435,1.053,0.435c0.396,0,0.771-0.155,1.052-0.437c0.281-0.281,0.437-0.654,0.437-1.053
		c0-0.397-0.155-0.633-0.437-0.912l-3.785-3.646h15.688c0.821,0,1.488-0.68,1.488-1.5S21.59,19.342,20.769,19.342z"/>
</g>
</svg>
