<?xml version="1.0" encoding="utf-8"?>
<!-- Generator: Adobe Illustrator 16.0.0, SVG Export Plug-In . SVG Version: 6.00 Build 0)  -->
<!DOCTYPE svg PUBLIC "-//W3C//DTD SVG 1.1//EN" "http://www.w3.org/Graphics/SVG/1.1/DTD/svg11.dtd">
<svg version="1.1" id="Layer_1" xmlns="http://www.w3.org/2000/svg" xmlns:xlink="http://www.w3.org/1999/xlink" x="0px" y="0px"
	 width="42.66px" height="41.623px" viewBox="0 0 42.66 41.623" enable-background="new 0 0 42.66 41.623" xml:space="preserve">
<g>
	<g>
		<path fill="#414042" d="M21.33-0.001C9.568-0.001,0,9.333,0,20.812c0,11.473,9.568,20.811,21.33,20.811s21.33-9.338,21.33-20.811
			C42.66,9.333,33.092-0.001,21.33-0.001z M28.217,37.763l-6.553-6.396l-6.732,6.57C7.766,35.378,2.627,28.679,2.627,20.812
			c0-7.824,5.08-14.492,12.184-17.082l6.852,6.684l6.674-6.512c6.85,2.713,11.697,9.262,11.697,16.91
			C40.033,28.499,35.128,35.077,28.217,37.763z"/>
	</g>
</g>
</svg>
