<?xml version="1.0" encoding="utf-8"?>
<!-- Generator: Adobe Illustrator 16.0.0, SVG Export Plug-In . SVG Version: 6.00 Build 0)  -->
<!DOCTYPE svg PUBLIC "-//W3C//DTD SVG 1.1//EN" "http://www.w3.org/Graphics/SVG/1.1/DTD/svg11.dtd">
<svg version="1.1" id="Layer_1" xmlns="http://www.w3.org/2000/svg" xmlns:xlink="http://www.w3.org/1999/xlink" x="0px" y="0px"
	 width="37.682px" height="25.427px" viewBox="23.909 27.446 37.682 25.427" enable-background="new 23.909 27.446 37.682 25.427"
	 xml:space="preserve">
<g>
	<g>
		<g>
			<path fill="#414042" d="M61.516,32.511l-0.019-2.949c0-1.173-0.961-2.126-2.137-2.116l-33.332,0.137
				c-1.174,0.008-2.119,0.963-2.119,2.133l0.013,2.957L61.516,32.511z"/>
			<path fill="#414042" d="M23.949,38.156l0.048,12.598c0.005,1.176,0.965,2.126,2.141,2.118l33.332-0.139
				c1.175-0.005,2.123-0.963,2.121-2.136L61.537,38L23.949,38.156z M38.229,48.83c0,0.247-0.195,0.444-0.443,0.447l-9.292-0.021
				c-0.247,0-0.449-0.198-0.449-0.445l-0.009-2.123c0-0.248,0.197-0.445,0.445-0.445l9.292,0.02
				c0.245-0.003,0.446,0.196,0.448,0.443L38.229,48.83z"/>
		</g>
	</g>
</g>
</svg>
