<?xml version="1.0" encoding="utf-8"?>
<!-- Generator: Adobe Illustrator 16.0.0, SVG Export Plug-In . SVG Version: 6.00 Build 0)  -->
<!DOCTYPE svg PUBLIC "-//W3C//DTD SVG 1.1//EN" "http://www.w3.org/Graphics/SVG/1.1/DTD/svg11.dtd">
<svg version="1.1" id="Layer_1" xmlns="http://www.w3.org/2000/svg" xmlns:xlink="http://www.w3.org/1999/xlink" x="0px" y="0px"
	 width="76.979px" height="100.305px" viewBox="0 0 76.979 100.305" enable-background="new 0 0 76.979 100.305"
	 xml:space="preserve">
<g>
	<g>
		<path fill="#414042" d="M38.489,0C17.265,0,0,17.27,0,38.495c0,8.993,3.098,17.277,8.286,23.833l30.203,37.978L68.69,62.328
			c5.19-6.556,8.289-14.84,8.289-23.833C76.979,17.27,59.713,0,38.489,0z M38.489,55.309c-9.555,0-17.324-7.774-17.324-17.332
			c0-9.551,7.77-17.325,17.324-17.325c9.55,0,17.327,7.773,17.327,17.325C55.816,47.534,48.045,55.309,38.489,55.309z"/>
	</g>
</g>
</svg>
