<?xml version="1.0" encoding="utf-8"?>
<!-- Generator: Adobe Illustrator 16.0.0, SVG Export Plug-In . SVG Version: 6.00 Build 0)  -->
<!DOCTYPE svg PUBLIC "-//W3C//DTD SVG 1.1//EN" "http://www.w3.org/Graphics/SVG/1.1/DTD/svg11.dtd">
<svg version="1.1" id="Layer_1" xmlns="http://www.w3.org/2000/svg" xmlns:xlink="http://www.w3.org/1999/xlink" x="0px" y="0px"
	 width="43.803px" height="38.919px" viewBox="21.917 18.186 43.803 38.919" enable-background="new 21.917 18.186 43.803 38.919"
	 xml:space="preserve">
<g>
	<g>
		<g>
			<path fill="#414042" d="M34.645,40.758c1.231,0,2.422-0.08,3.547-0.229v-12.34c-1.125-0.146-2.314-0.229-3.547-0.229
				c-7.026,0-12.727,2.585-12.727,5.771v1.251C21.918,38.172,27.617,40.758,34.645,40.758z"/>
			<path fill="#414042" d="M34.645,47.201c1.231,0,2.422-0.08,3.547-0.229v-3.616c-1.125,0.147-2.314,0.229-3.547,0.229
				c-6.134,0-11.256-1.969-12.457-4.59c-0.176,0.381-0.27,0.774-0.27,1.182v1.252C21.918,44.617,27.617,47.201,34.645,47.201z"/>
			<path fill="#414042" d="M38.191,50.082v-0.281c-1.125,0.148-2.314,0.229-3.547,0.229c-6.134,0-11.256-1.97-12.457-4.591
				c-0.176,0.381-0.27,0.777-0.27,1.184v1.251c0,3.188,5.699,5.771,12.727,5.771c1.405,0,2.758-0.101,4.021-0.294
				c-0.312-0.64-0.476-1.316-0.476-2.017L38.191,50.082L38.191,50.082z"/>
			<path fill="#414042" d="M52.993,18.186c-7.026,0-12.726,2.584-12.726,5.772v1.251c0,3.188,5.698,5.772,12.726,5.772
				s12.727-2.584,12.727-5.772v-1.251C65.72,20.77,60.021,18.186,52.993,18.186z"/>
			<path fill="#414042" d="M52.993,33.81c-6.133,0-11.255-1.969-12.458-4.589c-0.177,0.381-0.268,0.775-0.268,1.182v1.251
				c0,3.188,5.698,5.772,12.726,5.772s12.727-2.584,12.727-5.772v-1.251c0-0.405-0.093-0.801-0.266-1.182
				C64.25,31.841,59.129,33.81,52.993,33.81z"/>
			<path fill="#414042" d="M52.993,40.254c-6.133,0-11.255-1.969-12.458-4.592c-0.177,0.383-0.268,0.778-0.268,1.185v1.251
				c0,3.188,5.698,5.771,12.726,5.771s12.727-2.584,12.727-5.771v-1.251c0-0.405-0.093-0.802-0.266-1.185
				C64.25,38.285,59.129,40.254,52.993,40.254z"/>
			<path fill="#414042" d="M52.993,47.045c-6.133,0-11.255-1.967-12.458-4.59c-0.177,0.383-0.268,0.776-0.268,1.184v1.25
				c0,3.189,5.698,5.772,12.726,5.772s12.727-2.583,12.727-5.772v-1.25c0-0.406-0.093-0.802-0.266-1.184
				C64.25,45.078,59.129,47.045,52.993,47.045z"/>
			<path fill="#414042" d="M52.993,53.488c-6.133,0-11.255-1.967-12.458-4.588c-0.177,0.384-0.268,0.777-0.268,1.183v1.252
				c0,3.188,5.698,5.771,12.726,5.771s12.727-2.584,12.727-5.771v-1.252c0-0.404-0.093-0.799-0.266-1.183
				C64.25,51.521,59.129,53.488,52.993,53.488z"/>
		</g>
	</g>
</g>
</svg>
