<?xml version="1.0" encoding="utf-8"?>
<!-- Generator: Adobe Illustrator 16.0.0, SVG Export Plug-In . SVG Version: 6.00 Build 0)  -->
<!DOCTYPE svg PUBLIC "-//W3C//DTD SVG 1.1//EN" "http://www.w3.org/Graphics/SVG/1.1/DTD/svg11.dtd">
<svg version="1.1" id="Layer_1" xmlns="http://www.w3.org/2000/svg" xmlns:xlink="http://www.w3.org/1999/xlink" x="0px" y="0px"
	 width="42.66px" height="41.623px" viewBox="0 0 42.66 41.623" enable-background="new 0 0 42.66 41.623" xml:space="preserve">
<g>
	<g>
		<path fill="#808285" d="M21.33,0C9.568,0,0,9.334,0,20.812c0,11.474,9.568,20.812,21.33,20.812s21.33-9.338,21.33-20.812
			C42.66,9.334,33.092,0,21.33,0z M28.217,37.764l-6.553-6.396l-6.732,6.569C7.766,35.379,2.627,28.679,2.627,20.812
			c0-7.823,5.08-14.491,12.184-17.081l6.852,6.684l6.674-6.513c6.85,2.713,11.697,9.263,11.697,16.91
			C40.033,28.5,35.128,35.078,28.217,37.764z"/>
	</g>
</g>
</svg>
