<?xml version="1.0" encoding="utf-8"?>
<!-- Generator: Adobe Illustrator 16.0.0, SVG Export Plug-In . SVG Version: 6.00 Build 0)  -->
<!DOCTYPE svg PUBLIC "-//W3C//DTD SVG 1.1//EN" "http://www.w3.org/Graphics/SVG/1.1/DTD/svg11.dtd">
<svg version="1.1" id="Layer_1" xmlns="http://www.w3.org/2000/svg" xmlns:xlink="http://www.w3.org/1999/xlink" x="0px" y="0px"
	 width="19.77px" height="19.288px" viewBox="0 0 19.77 19.288" enable-background="new 0 0 19.77 19.288" xml:space="preserve">
<g>
	<path fill="#808285" d="M9.885,0C4.433,0,0,4.327,0,9.644c0,5.318,4.433,9.645,9.885,9.645c5.449,0,9.885-4.326,9.885-9.645
		C19.77,4.327,15.334,0,9.885,0z M13.075,17.499l-3.038-2.961l-3.118,3.041c-3.32-1.186-5.703-4.289-5.703-7.936
		c0-3.624,2.355-6.715,5.646-7.914l3.175,3.098l3.094-3.018c3.174,1.258,5.42,4.291,5.42,7.834
		C18.551,13.208,16.277,16.257,13.075,17.499z"/>
</g>
</svg>
