<?xml version="1.0" encoding="utf-8"?>
<!-- Generator: Adobe Illustrator 16.0.0, SVG Export Plug-In . SVG Version: 6.00 Build 0)  -->
<!DOCTYPE svg PUBLIC "-//W3C//DTD SVG 1.1//EN" "http://www.w3.org/Graphics/SVG/1.1/DTD/svg11.dtd">
<svg version="1.1" id="Layer_1" xmlns="http://www.w3.org/2000/svg" xmlns:xlink="http://www.w3.org/1999/xlink" x="0px" y="0px"
	 width="28.638px" height="28.403px" viewBox="0 0 28.638 28.403" enable-background="new 0 0 28.638 28.403" xml:space="preserve">
<g>
	<g>
		<path fill="#414042" d="M14.306,11.854c-2.473,0-4.481,2.011-4.481,4.48c0,2.472,2.009,4.481,4.481,4.481
			c2.471,0,4.481-2.01,4.481-4.481C18.787,13.865,16.776,11.854,14.306,11.854z M12.7,17.873c-0.584,0-1.041-0.676-1.041-1.538
			c0-0.859,0.457-1.536,1.041-1.536c0.585,0,1.043,0.677,1.043,1.536C13.743,17.197,13.285,17.873,12.7,17.873z M15.635,17.873
			c-0.581,0-1.041-0.676-1.041-1.538c0-0.859,0.46-1.536,1.041-1.536c0.585,0,1.044,0.677,1.044,1.536
			C16.679,17.197,16.22,17.873,15.635,17.873z"/>
		<path fill="#414042" d="M28.637,3.918c0.014-0.904-0.061-3.084-1.067-3.781C27.438,0.047,27.265,0,27.056,0
			c-1.344,0-5.007,2.067-6.618,3.707l-1.974-0.951c-0.27-0.127-0.618-0.005-0.747,0.264l-0.463,0.958
			c-1.919-0.437-3.943-0.472-5.91-0.082L10.925,3.02c-0.133-0.269-0.478-0.391-0.75-0.264L8.202,3.707C6.59,2.067,2.93,0,1.582,0
			C1.368,0,1.2,0.047,1.07,0.137C0.064,0.834-0.011,3.014,0.001,3.918C0.039,6.244,0.76,9.18,2.257,10.369
			c-0.955,1.736-1.459,3.681-1.459,5.644c0,2.767,0.956,5.38,2.771,7.566v4.824h2.913l0.701-1.811
			c2.085,1.186,4.466,1.811,6.913,1.811c2.495,0,4.91-0.646,7.014-1.864l0.724,1.864h2.912v-4.967
			c1.737-2.155,2.656-4.723,2.656-7.424c0-1.9-0.45-3.722-1.339-5.415c0.032-0.021,0.063-0.046,0.097-0.066
			C27.807,9.469,28.599,6.357,28.637,3.918z M14.306,22.472c-3.385,0-6.139-2.752-6.139-6.137c0-3.384,2.754-6.138,6.139-6.138
			s6.138,2.754,6.138,6.138C20.443,19.72,17.69,22.472,14.306,22.472z"/>
	</g>
</g>
</svg>
