<?xml version="1.0" encoding="utf-8"?>
<!-- Generator: Adobe Illustrator 16.0.0, SVG Export Plug-In . SVG Version: 6.00 Build 0)  -->
<!DOCTYPE svg PUBLIC "-//W3C//DTD SVG 1.1//EN" "http://www.w3.org/Graphics/SVG/1.1/DTD/svg11.dtd">
<svg version="1.1" id="Layer_1" xmlns="http://www.w3.org/2000/svg" xmlns:xlink="http://www.w3.org/1999/xlink" x="0px" y="0px"
	 width="53.292px" height="75.201px" viewBox="0 0 53.292 75.201" enable-background="new 0 0 53.292 75.201" xml:space="preserve">
<g opacity="0.9">
	<path fill="#414042" d="M26.646,0C11.67,0,0.072,12.14,0.072,27.115c0,18.728,24.468,47.079,24.468,47.079
		c1.159,1.342,3.054,1.342,4.211,0c0,0,24.469-28.352,24.469-47.079C53.22,12.14,41.621,0,26.646,0z M26.646,43.494
		c-9.004,0-16.305-7.3-16.305-16.305s7.301-16.306,16.305-16.306c9.005,0,16.306,7.301,16.306,16.306S35.65,43.494,26.646,43.494z"
		/>
	<linearGradient id="SVGID_1_" gradientUnits="userSpaceOnUse" x1="26.6465" y1="72.498" x2="26.6465" y2="2.0693">
		<stop  offset="0" style="stop-color:#414141"/>
		<stop  offset="1" style="stop-color:#585858"/>
	</linearGradient>
	<path fill="url(#SVGID_1_)" d="M26.646,2.069c-14.037,0-24.909,11.38-24.909,25.418c0,17.556,22.84,44.022,22.84,44.022
		c1.139,1.318,3.001,1.318,4.139,0c0,0,22.842-26.467,22.842-44.022C51.557,13.449,40.684,2.069,26.646,2.069z M26.646,42.842
		c-8.44,0-15.284-6.843-15.284-15.285c0-8.441,6.844-15.285,15.284-15.285c8.442,0,15.285,6.844,15.285,15.285
		C41.931,35.999,35.088,42.842,26.646,42.842z"/>
	<path fill="#58595B" d="M26.646,10.421c8.301,0,15.142,6.234,16.104,14.275c3.02,0.529,6.468,1.178,10.542,1.949
		C53.292,11.93,41.361,0,26.646,0S0,11.93,0,26.646c4.071-0.743,7.518-1.377,10.535-1.899C11.478,16.682,18.33,10.421,26.646,10.421
		z"/>
	<linearGradient id="SVGID_2_" gradientUnits="userSpaceOnUse" x1="26.6465" y1="45.043" x2="26.6465" y2="10.0703">
		<stop  offset="0" style="stop-color:#585858"/>
		<stop  offset="1" style="stop-color:#414141"/>
	</linearGradient>
	<path fill="url(#SVGID_2_)" d="M26.646,10.07c-9.655,0-17.485,7.829-17.485,17.486c0,9.658,7.83,17.486,17.485,17.486
		c9.657,0,17.487-7.828,17.487-17.486C44.133,17.899,36.303,10.07,26.646,10.07z M26.646,42.842c-8.44,0-15.284-6.843-15.284-15.285
		c0-8.441,6.844-15.285,15.284-15.285c8.442,0,15.285,6.844,15.285,15.285C41.931,35.999,35.088,42.842,26.646,42.842z"/>
</g>
</svg>
