<?xml version="1.0" encoding="utf-8"?>
<!-- Generator: Adobe Illustrator 16.0.0, SVG Export Plug-In . SVG Version: 6.00 Build 0)  -->
<!DOCTYPE svg PUBLIC "-//W3C//DTD SVG 1.1//EN" "http://www.w3.org/Graphics/SVG/1.1/DTD/svg11.dtd">
<svg version="1.1" id="Layer_1" xmlns="http://www.w3.org/2000/svg" xmlns:xlink="http://www.w3.org/1999/xlink" x="0px" y="0px"
	 width="37.105px" height="36.801px" viewBox="23.906 19.319 37.105 36.801" enable-background="new 23.906 19.319 37.105 36.801"
	 xml:space="preserve">
<g>
	<g>
		<path fill="#414042" d="M42.442,34.678c-3.203,0-5.808,2.604-5.808,5.804c0,3.203,2.604,5.809,5.808,5.809
			c3.2,0,5.809-2.604,5.809-5.809C48.25,37.282,45.643,34.678,42.442,34.678z M40.364,42.475c-0.759,0-1.352-0.873-1.352-1.993
			c0-1.112,0.593-1.988,1.352-1.988c0.758,0,1.351,0.876,1.351,1.988C41.714,41.602,41.121,42.475,40.364,42.475z M44.165,42.475
			c-0.754,0-1.35-0.873-1.35-1.993c0-1.112,0.596-1.988,1.35-1.988c0.757,0,1.353,0.876,1.353,1.988
			C45.518,41.602,44.922,42.475,44.165,42.475z"/>
		<path fill="#414042" d="M61.01,24.395c0.019-1.171-0.079-3.996-1.383-4.899c-0.169-0.116-0.394-0.177-0.664-0.177
			c-1.741,0-6.487,2.679-8.575,4.805L47.83,22.89c-0.35-0.166-0.803-0.008-0.97,0.341l-0.599,1.241
			c-2.488-0.563-5.11-0.609-7.658-0.104l-0.544-1.138c-0.17-0.349-0.618-0.507-0.97-0.341l-2.557,1.233
			c-2.09-2.126-6.833-4.805-8.578-4.805c-0.276,0-0.494,0.061-0.663,0.177c-1.306,0.903-1.401,3.729-1.384,4.899
			c0.048,3.014,0.982,6.816,2.922,8.358c-1.238,2.25-1.892,4.77-1.892,7.312c0,3.585,1.238,6.971,3.591,9.805v6.25h3.774
			l0.909-2.346c2.7,1.534,5.786,2.346,8.958,2.346c3.23,0,6.359-0.837,9.087-2.415l0.936,2.415h3.773v-6.436
			c2.252-2.794,3.442-6.119,3.442-9.619c0-2.463-0.584-4.82-1.734-7.018c0.042-0.028,0.082-0.058,0.124-0.085
			C59.936,31.585,60.962,27.555,61.01,24.395z M42.442,48.435c-4.385,0-7.955-3.564-7.955-7.953c0-4.384,3.57-7.949,7.955-7.949
			c4.386,0,7.953,3.565,7.953,7.949C50.396,44.869,46.827,48.435,42.442,48.435z"/>
	</g>
</g>
</svg>
