<?xml version="1.0" encoding="utf-8"?>
<!-- Generator: Adobe Illustrator 16.0.0, SVG Export Plug-In . SVG Version: 6.00 Build 0)  -->
<!DOCTYPE svg PUBLIC "-//W3C//DTD SVG 1.1//EN" "http://www.w3.org/Graphics/SVG/1.1/DTD/svg11.dtd">
<svg version="1.1" id="Layer_1" xmlns="http://www.w3.org/2000/svg" xmlns:xlink="http://www.w3.org/1999/xlink" x="0px" y="0px"
	 width="60.541px" height="93.509px" viewBox="0 0 60.541 93.509" enable-background="new 0 0 60.541 93.509" xml:space="preserve">
<g>
	<path fill="#414042" d="M14.629,30.73c0,0,10.324-2.879,11.328-5.451c1.016-2.568,5.482-21.529-1.805-24.381
		C16.861-1.947,5.979,2.352,3.637,8.344c-2.342,5.994-8.936,28.797,4.875,54.055c13.809,25.255,31.84,31.31,35.533,31.104
		c3.689-0.195,16.68-5.654,16.496-13.617c-0.178-7.959-14.459-15.177-18.609-15.483c-4.158-0.305-10.316,7.019-10.316,7.019
		s-9.508-10.153-13.297-21.499C14.527,38.572,14.629,30.73,14.629,30.73z"/>
</g>
</svg>
