<?xml version="1.0" encoding="utf-8"?>
<!-- Generator: Adobe Illustrator 16.0.0, SVG Export Plug-In . SVG Version: 6.00 Build 0)  -->
<!DOCTYPE svg PUBLIC "-//W3C//DTD SVG 1.1//EN" "http://www.w3.org/Graphics/SVG/1.1/DTD/svg11.dtd">
<svg version="1.1" id="Layer_1" xmlns="http://www.w3.org/2000/svg" xmlns:xlink="http://www.w3.org/1999/xlink" x="0px" y="0px"
	 width="30px" height="30px" viewBox="0 0 30 30" enable-background="new 0 0 30 30" xml:space="preserve">
<g>
	<path fill="#414042" d="M0,26.896c0-7.168,0-14.338,0-21.504C0.02,5.348,0.047,5.307,0.055,5.26c0.26-1.51,1.316-2.627,2.807-2.875
		c0.543-0.09,1.109-0.057,1.662-0.068c0.4-0.01,0.797-0.002,1.232-0.002c0,0.143,0,0.246,0,0.352c0,0.604-0.008,1.209,0,1.814
		c0.016,1.113,0.621,2.01,1.555,2.314c1.523,0.498,3.006-0.52,3.068-2.125c0.027-0.672,0.008-1.348,0.012-2.021
		c0-0.102,0.01-0.203,0.016-0.311c3.08,0,6.131,0,9.207,0c0,0.129-0.002,0.234,0,0.34c0.004,0.713-0.016,1.428,0.018,2.137
		c0.045,1.041,0.918,1.947,1.965,2.09c1.092,0.148,2.172-0.49,2.49-1.508c0.104-0.33,0.143-0.688,0.152-1.033
		c0.023-0.67,0.008-1.342,0.008-2.029c0.855,0,1.672-0.037,2.488,0.006c1.58,0.084,2.814,1.152,3.176,2.689
		C29.939,5.15,29.971,5.271,30,5.393c0,7.166,0,14.336,0,21.504c-0.02,0.062-0.047,0.125-0.059,0.191
		c-0.252,1.35-1.033,2.254-2.316,2.723c-0.236,0.086-0.486,0.129-0.73,0.189c-7.93,0-15.859,0-23.789,0
		c-0.053-0.018-0.107-0.045-0.164-0.055c-1.377-0.246-2.293-1.037-2.76-2.35C0.102,27.369,0.061,27.129,0,26.896z M2.309,10.371
		c-0.006,0.139-0.016,0.262-0.016,0.385c-0.002,5.174-0.002,10.35-0.002,15.525c0,0.984,0.445,1.428,1.434,1.428
		c7.52,0.002,15.037,0.002,22.555,0c0.986,0,1.43-0.443,1.43-1.432c0.002-5.166,0-10.33,0-15.496c0-0.41,0-0.41-0.406-0.41
		c-8.203,0-16.404,0-24.607,0C2.59,10.371,2.48,10.371,2.309,10.371z"/>
	<path fill-rule="evenodd" clip-rule="evenodd" fill="#414042" d="M8.32,0c0.076,0.039,0.15,0.08,0.225,0.117
		c0.387,0.193,0.648,0.492,0.654,0.932C9.215,2.275,9.221,3.504,9.197,4.73c-0.012,0.557-0.48,0.98-1.025,1.014
		C7.59,5.781,7.016,5.439,6.992,4.889c-0.055-1.33-0.049-2.666-0.006-3.998C7.002,0.408,7.434,0.174,7.854,0C8.008,0,8.164,0,8.32,0
		z"/>
	<path fill-rule="evenodd" clip-rule="evenodd" fill="#414042" d="M22.148,0c0.727,0.258,0.955,0.797,0.932,1.529
		c-0.031,1.004,0.002,2.01-0.012,3.014c-0.01,0.867-0.754,1.42-1.523,1.143c-0.441-0.16-0.732-0.48-0.74-0.955
		c-0.021-1.227-0.018-2.455-0.004-3.682c0.006-0.439,0.27-0.738,0.654-0.932C21.531,0.08,21.605,0.039,21.682,0
		C21.836,0,21.992,0,22.148,0z"/>
</g>
</svg>
